<?xml version="1.0" encoding="UTF-8" standalone="no"?>
<svg width="555px" height="147px" viewBox="0 0 555 147" version="1.1" xmlns="http://www.w3.org/2000/svg" xmlns:xlink="http://www.w3.org/1999/xlink" xmlns:sketch="http://www.bohemiancoding.com/sketch/ns">
    <!-- Generator: Sketch 3.3.2 (12043) - http://www.bohemiancoding.com/sketch -->
    <title>variant twelve</title>
    <desc>Created with Sketch.</desc>
    <defs></defs>
    <g id="Page-1" stroke="none" stroke-width="1" fill="none" fill-rule="evenodd" sketch:type="MSPage">
        <g id="variant-twelve" sketch:type="MSArtboardGroup" transform="translate(-71.000000, -288.000000)">
            <path d="M560.355728,327.979478 C542.603894,347.474133 523.505698,333.397311 525.71537,318.420906 C529.541716,292.487238 577.972636,288.234675 577.972636,288.234675 C577.972636,288.234675 573.34359,313.716506 560.355728,327.979478 Z" id="Path-2-Copy" fill="#7CD516" sketch:type="MSShapeGroup"></path>
            <path d="M107.38,364.206261 C104.579986,360.286242 100.820024,358.326261 96.1,358.326261 C94.1799904,358.326261 92.3000092,358.806257 90.46,359.766261 C88.6199908,360.726266 87.7,362.286251 87.7,364.446261 C87.7,366.20627 88.4599924,367.486257 89.98,368.286261 C91.5000076,369.086265 93.4199884,369.766259 95.74,370.326261 C98.0600116,370.886264 100.559987,371.466258 103.24,372.066261 C105.920013,372.666264 108.419988,373.586255 110.74,374.826261 C113.060012,376.066268 114.979992,377.766251 116.5,379.926261 C118.020008,382.086272 118.78,385.046243 118.78,388.806261 C118.78,392.246279 118.040007,395.14625 116.56,397.506261 C115.079993,399.866273 113.160012,401.766254 110.8,403.206261 C108.439988,404.646269 105.780015,405.686258 102.82,406.326261 C99.8599852,406.966265 96.9000148,407.286261 93.94,407.286261 C89.4599776,407.286261 85.3400188,406.646268 81.58,405.366261 C77.8199812,404.086255 74.4600148,401.766278 71.5,398.406261 L81.1,389.406261 C82.9400092,391.486272 84.9199894,393.186255 87.04,394.506261 C89.1600106,395.826268 91.7399848,396.486261 94.78,396.486261 C95.8200052,396.486261 96.8999944,396.366263 98.02,396.126261 C99.1400056,395.88626 100.179995,395.486264 101.14,394.926261 C102.100005,394.366259 102.879997,393.666266 103.48,392.826261 C104.080003,391.986257 104.38,391.006267 104.38,389.886261 C104.38,387.886251 103.620008,386.406266 102.1,385.446261 C100.579992,384.486257 98.6600116,383.706264 96.34,383.106261 C94.0199884,382.506258 91.5200134,381.946264 88.84,381.426261 C86.1599866,380.906259 83.6600116,380.066267 81.34,378.906261 C79.0199884,377.746256 77.1000076,376.126272 75.58,374.046261 C74.0599924,371.966251 73.3,369.08628 73.3,365.406261 C73.3,362.206245 73.9599934,359.426273 75.28,357.066261 C76.6000066,354.70625 78.3399892,352.766269 80.5,351.246261 C82.6600108,349.726254 85.139986,348.606265 87.94,347.886261 C90.740014,347.166258 93.5799856,346.806261 96.46,346.806261 C100.300019,346.806261 104.099981,347.466255 107.86,348.786261 C111.620019,350.106268 114.659988,352.366245 116.98,355.566261 L107.38,364.206261 Z M129.94,348.246261 L143.62,348.246261 L143.62,357.486261 L143.86,357.486261 C145.220007,354.606247 147.299986,352.106272 150.1,349.986261 C152.900014,347.866251 156.699976,346.806261 161.5,346.806261 C165.340019,346.806261 168.599987,347.446255 171.28,348.726261 C173.960013,350.006268 176.139992,351.686251 177.82,353.766261 C179.500008,355.846272 180.699996,358.246248 181.42,360.966261 C182.140004,363.686275 182.5,366.526247 182.5,369.486261 L182.5,405.846261 L168.1,405.846261 L168.1,376.686261 C168.1,375.086253 168.020001,373.306271 167.86,371.346261 C167.699999,369.386252 167.280003,367.54627 166.6,365.826261 C165.919997,364.106253 164.860007,362.666267 163.42,361.506261 C161.979993,360.346256 160.020012,359.766261 157.54,359.766261 C155.139988,359.766261 153.120008,360.166257 151.48,360.966261 C149.839992,361.766265 148.480005,362.846255 147.4,364.206261 C146.319995,365.566268 145.540002,367.126253 145.06,368.886261 C144.579998,370.64627 144.34,372.486252 144.34,374.406261 L144.34,405.846261 L129.94,405.846261 L129.94,348.246261 Z M234.82,397.926261 L234.46,397.926261 C232.37999,401.206278 229.740016,403.586254 226.54,405.066261 C223.339984,406.546269 219.820019,407.286261 215.98,407.286261 C213.339987,407.286261 210.760013,406.926265 208.24,406.206261 C205.719987,405.486258 203.48001,404.406269 201.52,402.966261 C199.55999,401.526254 197.980006,399.726272 196.78,397.566261 C195.579994,395.406251 194.98,392.886276 194.98,390.006261 C194.98,386.886246 195.539994,384.226272 196.66,382.026261 C197.780006,379.82625 199.279991,377.986269 201.16,376.506261 C203.040009,375.026254 205.219988,373.846266 207.7,372.966261 C210.180012,372.086257 212.759987,371.426264 215.44,370.986261 C218.120013,370.546259 220.819986,370.266262 223.54,370.146261 C226.260014,370.026261 228.819988,369.966261 231.22,369.966261 L234.82,369.966261 L234.82,368.406261 C234.82,364.806243 233.580012,362.10627 231.1,360.306261 C228.619988,358.506252 225.460019,357.606261 221.62,357.606261 C218.579985,357.606261 215.740013,358.146256 213.1,359.226261 C210.459987,360.306267 208.18001,361.766252 206.26,363.606261 L198.7,356.046261 C201.900016,352.766245 205.639979,350.406269 209.92,348.966261 C214.200021,347.526254 218.619977,346.806261 223.18,346.806261 C227.26002,346.806261 230.699986,347.266257 233.5,348.186261 C236.300014,349.106266 238.619991,350.286254 240.46,351.726261 C242.300009,353.166269 243.719995,354.826252 244.72,356.706261 C245.720005,358.586271 246.439998,360.486252 246.88,362.406261 C247.320002,364.326271 247.58,366.186252 247.66,367.986261 C247.74,369.78627 247.78,371.366255 247.78,372.726261 L247.78,405.846261 L234.82,405.846261 L234.82,397.926261 Z M233.98,380.046261 L230.98,380.046261 C228.97999,380.046261 226.740012,380.126261 224.26,380.286261 C221.779988,380.446262 219.440011,380.826258 217.24,381.426261 C215.039989,382.026264 213.180008,382.906256 211.66,384.066261 C210.139992,385.226267 209.38,386.846251 209.38,388.926261 C209.38,390.286268 209.679997,391.426257 210.28,392.346261 C210.880003,393.266266 211.659995,394.046258 212.62,394.686261 C213.580005,395.326265 214.659994,395.78626 215.86,396.066261 C217.060006,396.346263 218.259994,396.486261 219.46,396.486261 C224.420025,396.486261 228.079988,395.306273 230.44,392.946261 C232.800012,390.58625 233.98,387.366282 233.98,383.286261 L233.98,380.046261 Z M302.62,365.526261 C300.939992,363.766253 299.180009,362.366267 297.34,361.326261 C295.499991,360.286256 293.62001,359.766261 291.7,359.766261 C289.059987,359.766261 286.70001,360.246257 284.62,361.206261 C282.53999,362.166266 280.760007,363.446253 279.28,365.046261 C277.799993,366.646269 276.680004,368.486251 275.92,370.566261 C275.159996,372.646272 274.78,374.80625 274.78,377.046261 C274.78,379.286273 275.159996,381.446251 275.92,383.526261 C276.680004,385.606272 277.799993,387.446253 279.28,389.046261 C280.760007,390.646269 282.53999,391.926257 284.62,392.886261 C286.70001,393.846266 289.059987,394.326261 291.7,394.326261 C293.940011,394.326261 296.01999,393.866266 297.94,392.946261 C299.86001,392.026257 301.499993,390.68627 302.86,388.926261 L312.46,399.246261 C311.019993,400.686269 309.360009,401.926256 307.48,402.966261 C305.599991,404.006267 303.70001,404.846258 301.78,405.486261 C299.85999,406.126265 298.020009,406.58626 296.26,406.866261 C294.499991,407.146263 292.980006,407.286261 291.7,407.286261 C287.379978,407.286261 283.300019,406.566269 279.46,405.126261 C275.619981,403.686254 272.300014,401.646275 269.5,399.006261 C266.699986,396.366248 264.480008,393.18628 262.84,389.466261 C261.199992,385.746243 260.38,381.606284 260.38,377.046261 C260.38,372.486239 261.199992,368.34628 262.84,364.626261 C264.480008,360.906243 266.699986,357.726275 269.5,355.086261 C272.300014,352.446248 275.619981,350.406269 279.46,348.966261 C283.300019,347.526254 287.379978,346.806261 291.7,346.806261 C295.380018,346.806261 299.079981,347.506254 302.8,348.906261 C306.520019,350.306268 309.779986,352.526246 312.58,355.566261 L302.62,365.526261 Z M321.1,315.126261 L335.5,315.126261 L335.5,372.126261 L357.7,348.246261 L376.18,348.246261 L351.46,374.406261 L377.74,405.846261 L358.66,405.846261 L335.74,376.446261 L335.5,376.446261 L335.5,405.846261 L321.1,405.846261 L321.1,315.126261 Z M431.14,397.206261 L430.9,397.206261 C428.81999,400.726279 426.020018,403.286253 422.5,404.886261 C418.979982,406.486269 415.18002,407.286261 411.1,407.286261 C406.619978,407.286261 402.640017,406.506269 399.16,404.946261 C395.679983,403.386254 392.700012,401.246275 390.22,398.526261 C387.739988,395.806248 385.860006,392.60628 384.58,388.926261 C383.299994,385.246243 382.66,381.286283 382.66,377.046261 C382.66,372.80624 383.339993,368.84628 384.7,365.166261 C386.060007,361.486243 387.959988,358.286275 390.4,355.566261 C392.840012,352.846248 395.779983,350.706269 399.22,349.146261 C402.660017,347.586254 406.41998,346.806261 410.5,346.806261 C413.220014,346.806261 415.61999,347.086259 417.7,347.646261 C419.78001,348.206264 421.619992,348.926257 423.22,349.806261 C424.820008,350.686266 426.179994,351.626256 427.3,352.626261 C428.420006,353.626266 429.339996,354.606257 430.06,355.566261 L430.42,355.566261 L430.42,315.126261 L444.82,315.126261 L444.82,405.846261 L431.14,405.846261 L431.14,397.206261 Z M397.06,377.046261 C397.06,379.286273 397.439996,381.446251 398.2,383.526261 C398.960004,385.606272 400.079993,387.446253 401.56,389.046261 C403.040007,390.646269 404.81999,391.926257 406.9,392.886261 C408.98001,393.846266 411.339987,394.326261 413.98,394.326261 C416.620013,394.326261 418.97999,393.846266 421.06,392.886261 C423.14001,391.926257 424.919993,390.646269 426.4,389.046261 C427.880007,387.446253 428.999996,385.606272 429.76,383.526261 C430.520004,381.446251 430.9,379.286273 430.9,377.046261 C430.9,374.80625 430.520004,372.646272 429.76,370.566261 C428.999996,368.486251 427.880007,366.646269 426.4,365.046261 C424.919993,363.446253 423.14001,362.166266 421.06,361.206261 C418.97999,360.246257 416.620013,359.766261 413.98,359.766261 C411.339987,359.766261 408.98001,360.246257 406.9,361.206261 C404.81999,362.166266 403.040007,363.446253 401.56,365.046261 C400.079993,366.646269 398.960004,368.486251 398.2,370.566261 C397.439996,372.646272 397.06,374.80625 397.06,377.046261 L397.06,377.046261 Z M458.26,377.046261 C458.26,372.486239 459.079992,368.34628 460.72,364.626261 C462.360008,360.906243 464.579986,357.726275 467.38,355.086261 C470.180014,352.446248 473.499981,350.406269 477.34,348.966261 C481.180019,347.526254 485.259978,346.806261 489.58,346.806261 C493.900022,346.806261 497.979981,347.526254 501.82,348.966261 C505.660019,350.406269 508.979986,352.446248 511.78,355.086261 C514.580014,357.726275 516.799992,360.906243 518.44,364.626261 C520.080008,368.34628 520.9,372.486239 520.9,377.046261 C520.9,381.606284 520.080008,385.746243 518.44,389.466261 C516.799992,393.18628 514.580014,396.366248 511.78,399.006261 C508.979986,401.646275 505.660019,403.686254 501.82,405.126261 C497.979981,406.566269 493.900022,407.286261 489.58,407.286261 C485.259978,407.286261 481.180019,406.566269 477.34,405.126261 C473.499981,403.686254 470.180014,401.646275 467.38,399.006261 C464.579986,396.366248 462.360008,393.18628 460.72,389.466261 C459.079992,385.746243 458.26,381.606284 458.26,377.046261 L458.26,377.046261 Z M472.66,377.046261 C472.66,379.286273 473.039996,381.446251 473.8,383.526261 C474.560004,385.606272 475.679993,387.446253 477.16,389.046261 C478.640007,390.646269 480.41999,391.926257 482.5,392.886261 C484.58001,393.846266 486.939987,394.326261 489.58,394.326261 C492.220013,394.326261 494.57999,393.846266 496.66,392.886261 C498.74001,391.926257 500.519993,390.646269 502,389.046261 C503.480007,387.446253 504.599996,385.606272 505.36,383.526261 C506.120004,381.446251 506.5,379.286273 506.5,377.046261 C506.5,374.80625 506.120004,372.646272 505.36,370.566261 C504.599996,368.486251 503.480007,366.646269 502,365.046261 C500.519993,363.446253 498.74001,362.166266 496.66,361.206261 C494.57999,360.246257 492.220013,359.766261 489.58,359.766261 C486.939987,359.766261 484.58001,360.246257 482.5,361.206261 C480.41999,362.166266 478.640007,363.446253 477.16,365.046261 C475.679993,366.646269 474.560004,368.486251 473.8,370.566261 C473.039996,372.646272 472.66,374.80625 472.66,377.046261 L472.66,377.046261 Z M548.98,348.246261 L548.98,409.326261 C548.98,412.926279 548.740002,416.266246 548.26,419.346261 C547.779998,422.426277 546.840007,425.10625 545.44,427.386261 C544.039993,429.666273 542.060013,431.446255 539.5,432.726261 C536.939987,434.006268 533.62002,434.646261 529.54,434.646261 C528.179993,434.646261 526.860006,434.566262 525.58,434.406261 C524.299994,434.246261 523.020006,433.966263 521.74,433.566261 L522.82,421.086261 C523.620004,421.246262 524.379996,421.386261 525.1,421.506261 C525.820004,421.626262 526.579996,421.686261 527.38,421.686261 C529.140009,421.686261 530.519995,421.306265 531.52,420.546261 C532.520005,419.786258 533.239998,418.806267 533.68,417.606261 C534.120002,416.406255 534.38,415.086269 534.46,413.646261 C534.54,412.206254 534.58,410.806268 534.58,409.446261 L534.58,348.246261 L548.98,348.246261 Z M562.66,377.046261 C562.66,372.486239 563.479992,368.34628 565.12,364.626261 C566.760008,360.906243 568.979986,357.726275 571.78,355.086261 C574.580014,352.446248 577.899981,350.406269 581.74,348.966261 C585.580019,347.526254 589.659978,346.806261 593.98,346.806261 C598.300022,346.806261 602.379981,347.526254 606.22,348.966261 C610.060019,350.406269 613.379986,352.446248 616.18,355.086261 C618.980014,357.726275 621.199992,360.906243 622.84,364.626261 C624.480008,368.34628 625.3,372.486239 625.3,377.046261 C625.3,381.606284 624.480008,385.746243 622.84,389.466261 C621.199992,393.18628 618.980014,396.366248 616.18,399.006261 C613.379986,401.646275 610.060019,403.686254 606.22,405.126261 C602.379981,406.566269 598.300022,407.286261 593.98,407.286261 C589.659978,407.286261 585.580019,406.566269 581.74,405.126261 C577.899981,403.686254 574.580014,401.646275 571.78,399.006261 C568.979986,396.366248 566.760008,393.18628 565.12,389.466261 C563.479992,385.746243 562.66,381.606284 562.66,377.046261 L562.66,377.046261 Z M577.06,377.046261 C577.06,379.286273 577.439996,381.446251 578.2,383.526261 C578.960004,385.606272 580.079993,387.446253 581.56,389.046261 C583.040007,390.646269 584.81999,391.926257 586.9,392.886261 C588.98001,393.846266 591.339987,394.326261 593.98,394.326261 C596.620013,394.326261 598.97999,393.846266 601.06,392.886261 C603.14001,391.926257 604.919993,390.646269 606.4,389.046261 C607.880007,387.446253 608.999996,385.606272 609.76,383.526261 C610.520004,381.446251 610.9,379.286273 610.9,377.046261 C610.9,374.80625 610.520004,372.646272 609.76,370.566261 C608.999996,368.486251 607.880007,366.646269 606.4,365.046261 C604.919993,363.446253 603.14001,362.166266 601.06,361.206261 C598.97999,360.246257 596.620013,359.766261 593.98,359.766261 C591.339987,359.766261 588.98001,360.246257 586.9,361.206261 C584.81999,362.166266 583.040007,363.446253 581.56,365.046261 C580.079993,366.646269 578.960004,368.486251 578.2,370.566261 C577.439996,372.646272 577.06,374.80625 577.06,377.046261 L577.06,377.046261 Z" id="snackdojo" fill="#000000" sketch:type="MSShapeGroup"></path>
            <path d="M548.98,348.246261 L548.98,409.326261 C548.98,412.926279 548.740002,416.266246 548.26,419.346261 C547.779998,422.426277 546.840007,425.10625 545.44,427.386261 C544.039993,429.666273 542.060013,431.446255 539.5,432.726261 C536.939987,434.006268 533.62002,434.646261 529.54,434.646261 C528.179993,434.646261 526.860006,434.566262 525.58,434.406261 C524.299994,434.246261 523.020006,433.966263 521.74,433.566261 L522.82,421.086261 C523.620004,421.246262 524.379996,421.386261 525.1,421.506261 C525.820004,421.626262 526.579996,421.686261 527.38,421.686261 C529.140009,421.686261 530.519995,421.306265 531.52,420.546261 C532.520005,419.786258 533.239998,418.806267 533.68,417.606261 C534.120002,416.406255 534.38,415.086269 534.46,413.646261 C534.54,412.206254 534.58,410.806268 534.58,409.446261 L534.58,348.246261 L548.98,348.246261 Z" id="Path-Copy" fill="#000000" sketch:type="MSShapeGroup"></path>
        </g>
    </g>
</svg>